<svg width="800" height="149" viewBox="0 0 500 109" fill="none" xmlns="http://www.w3.org/2000/svg">
    <rect x="0"  y="100" width="3" height="10" fill="#f9fafb"/>
    <rect x="4" y="95" width="3" height="15" fill="#f9fafb"/>
    <rect x="8" y="90" width="3" height="20" fill="#f9fafb"/>
    <rect x="12" y="85" width="3" height="25" fill="#f9fafb"/>
    <rect x="16" y="80" width="3" height="30" fill="#f9fafb"/>
    <rect x="20" y="75" width="3" height="35" fill="#f9fafb"/>
    <rect x="24" y="70" width="3" height="40" fill="#f9fafb"/>
    <rect x="28" y="65" width="3" height="45" fill="#f9fafb"/>
    <rect x="32" y="60" width="3" height="50" fill="#f9fafb"/>
    <rect x="36" y="55" width="3" height="55" fill="#f9fafb"/>
    <rect x="40" y="50" width="3" height="60" fill="#f9fafb"/>
    <rect x="44" y="100" width="3" height="10" fill="#f9fafb"/>
    <rect x="48" y="95" width="3" height="15" fill="#f9fafb"/>
    <rect x="52" y="90" width="3" height="20" fill="#f9fafb"/>
    <rect x="56" y="85" width="3" height="25" fill="#f9fafb"/>
    <rect x="60" y="80" width="3" height="30" fill="#f9fafb"/>
    <rect x="64" y="75" width="3" height="35" fill="#f9fafb"/>
    <rect x="68" y="70" width="3" height="40" fill="#f9fafb"/>
    <rect x="72" y="65" width="3" height="45" fill="#f9fafb"/>
    <rect x="76" y="60" width="3" height="50" fill="#f9fafb"/>
    <rect x="80" y="55" width="3" height="55" fill="#f9fafb"/>
    <rect x="84" y="50" width="3" height="60" fill="#f9fafb"/>
    <rect x="88" y="100" width="3" height="10" fill="#f9fafb"/>
    <rect x="92" y="95" width="3" height="15" fill="#f9fafb"/>
    <rect x="96" y="90" width="3" height="20" fill="#f9fafb"/>
    <rect x="100" y="85" width="3" height="25" fill="#f9fafb"/>
    <rect x="104" y="80" width="3" height="30" fill="#f9fafb"/>
    <rect x="108" y="75" width="3" height="35" fill="#f9fafb"/>
    <rect x="112" y="70" width="3" height="40" fill="#f9fafb"/>
    <rect x="116" y="65" width="3" height="45" fill="#f9fafb"/>
    <rect x="120" y="60" width="3" height="50" fill="#f9fafb"/>
    <rect x="124" y="55" width="3" height="555" fill="#f9fafb"/>
    <rect x="128" y="50" width="3" height="60" fill="#f9fafb"/>
    <rect x="132" y="100" width="3" height="10" fill="#f9fafb"/>
    <rect x="136" y="95" width="3" height="15" fill="#f9fafb"/>
    <rect x="140" y="90" width="3" height="20" fill="#f9fafb"/>
    <rect x="144" y="85" width="3" height="25" fill="#f9fafb"/>
    <rect x="148" y="80" width="3" height="30" fill="#f9fafb"/>
    <rect x="152" y="75" width="3" height="35" fill="#f9fafb"/>
    <rect x="156" y="70" width="3" height="40" fill="#f9fafb"/>
    <rect x="160" y="65" width="3" height="45" fill="#f9fafb"/>
    <rect x="164" y="60" width="3" height="50" fill="#f9fafb"/>
    <rect x="168" y="55" width="3" height="55" fill="#f9fafb"/>
    <rect x="172" y="50" width="3" height="60" fill="#f9fafb"/>
    <rect x="176" y="100" width="3" height="10" fill="#f9fafb"/>
    <rect x="180" y="95" width="3" height="15" fill="#f9fafb"/>
    <rect x="184" y="90" width="3" height="20" fill="#f9fafb"/>
    <rect x="188" y="85" width="3" height="25" fill="#f9fafb"/>
    <rect x="192" y="80" width="3" height="30" fill="#f9fafb"/>
    <rect x="196" y="75" width="3" height="35" fill="#f9fafb"/>
    <rect x="200" y="70" width="3" height="40" fill="#f9fafb"/>
    <rect x="204" y="65" width="3" height="45" fill="#f9fafb"/>
    <rect x="208" y="60" width="3" height="50" fill="#f9fafb"/>
    <rect x="212" y="55" width="3" height="55" fill="#f9fafb"/>
    <rect x="216" y="50" width="3" height="60" fill="#f9fafb"/>
    <rect x="220" y="100" width="3" height="10" fill="#f9fafb"/>
    <rect x="224" y="95" width="3" height="15" fill="#f9fafb"/>
    <rect x="228" y="90" width="3" height="20" fill="#f9fafb"/>
    <rect x="232" y="85" width="3" height="25" fill="#f9fafb"/>
    <rect x="236" y="80" width="3" height="30" fill="#f9fafb"/>
    <rect x="240" y="75" width="3" height="35" fill="#f9fafb"/>
    <rect x="244" y="70" width="3" height="40" fill="#f9fafb"/>
    <rect x="248" y="65" width="3" height="45" fill="#f9fafb"/>
    <rect x="252" y="60" width="3" height="50" fill="#f9fafb"/>
    <rect x="256" y="55" width="3" height="55" fill="#f9fafb"/>
    <rect x="260" y="50" width="3" height="60" fill="#f9fafb"/>
    <rect x="264" y="100" width="3" height="10" fill="#f9fafb"/>
    <rect x="268" y="95" width="3" height="15" fill="#f9fafb"/>
    <rect x="272" y="90" width="3" height="20" fill="#f9fafb"/>
    <rect x="276" y="85" width="3" height="25" fill="#f9fafb"/>
    <rect x="280" y="80" width="3" height="30" fill="#f9fafb"/>
    <rect x="284" y="75" width="3" height="35" fill="#f9fafb"/>
    <rect x="288" y="70" width="3" height="40" fill="#f9fafb"/>
    <rect x="292" y="65" width="3" height="45" fill="#f9fafb"/>
    <rect x="296" y="60" width="3" height="50" fill="#f9fafb"/>
    <rect x="300" y="55" width="3" height="55" fill="#f9fafb"/>
    <rect x="304" y="50" width="3" height="60" fill="#f9fafb"/>
    <rect x="308" y="100" width="3" height="10" fill="#f9fafb"/>
    <rect x="312" y="95" width="3" height="15" fill="#f9fafb"/>
    <rect x="316" y="90" width="3" height="20" fill="#f9fafb"/>
    <rect x="320" y="85" width="3" height="25" fill="#f9fafb"/>
    <rect x="324" y="80" width="3" height="30" fill="#f9fafb"/>
    <rect x="328" y="75" width="3" height="35" fill="#f9fafb"/>
    <rect x="332" y="70" width="3" height="40" fill="#f9fafb"/>
    <rect x="336" y="65" width="3" height="45" fill="#f9fafb"/>
    <rect x="340" y="60" width="3" height="50" fill="#f9fafb"/>
    <rect x="344" y="55" width="3" height="55" fill="#f9fafb"/>
    <rect x="348" y="50" width="3" height="60" fill="#f9fafb"/>
    <rect x="352" y="100" width="3" height="10" fill="#f9fafb"/>
    <rect x="356" y="95" width="3" height="15" fill="#f9fafb"/>
    <rect x="360" y="90" width="3" height="20" fill="#f9fafb"/>
    <rect x="364" y="85" width="3" height="25" fill="#f9fafb"/>
    <rect x="368" y="80" width="3" height="30" fill="#f9fafb"/>
    <rect x="372" y="75" width="3" height="35" fill="#f9fafb"/>
    <rect x="376" y="70" width="3" height="40" fill="#f9fafb"/>
    <rect x="380" y="65" width="3" height="45" fill="#f9fafb"/>
    <rect x="384" y="60" width="3" height="50" fill="#f9fafb"/>
    <rect x="388" y="55" width="3" height="55" fill="#f9fafb"/>
    <rect x="392" y="50" width="3" height="60" fill="#f9fafb"/>
    <rect x="396" y="100" width="3" height="10" fill="#f9fafb"/>
    <rect x="400" y="95" width="3" height="15" fill="#f9fafb"/>
    <rect x="404" y="90" width="3" height="20" fill="#f9fafb"/>
    <rect x="408" y="85" width="3" height="25" fill="#f9fafb"/>
    <rect x="412" y="80" width="3" height="30" fill="#f9fafb"/>
    <rect x="416" y="75" width="3" height="35" fill="#f9fafb"/>
    <rect x="420" y="70" width="3" height="40" fill="#f9fafb"/>
    <rect x="424" y="65" width="3" height="45" fill="#f9fafb"/>
    <rect x="428" y="60" width="3" height="50" fill="#f9fafb"/>
    <rect x="432" y="55" width="3" height="55" fill="#f9fafb"/>
    <rect x="436" y="50" width="3" height="60" fill="#f9fafb"/>
    <rect x="440" y="100" width="3" height="10" fill="#f9fafb"/>
    <rect x="444" y="95" width="3" height="15" fill="#f9fafb"/>
    <rect x="448" y="90" width="3" height="20" fill="#f9fafb"/>
    <rect x="452" y="85" width="3" height="25" fill="#f9fafb"/>
    <rect x="456" y="80" width="3" height="30" fill="#f9fafb"/>
    <rect x="460" y="75" width="3" height="35" fill="#f9fafb"/>
    <rect x="464" y="70" width="3" height="40" fill="#f9fafb"/>
    <rect x="468" y="65" width="3" height="45" fill="#f9fafb"/>
    <rect x="472" y="60" width="3" height="50" fill="#f9fafb"/>
    <rect x="476" y="55" width="3" height="55" fill="#f9fafb"/>
    <rect x="480" y="50" width="3" height="60" fill="#f9fafb"/>
</svg>
