<?xml version="1.0" encoding="UTF-8"?>
<svg xmlns="http://www.w3.org/2000/svg" viewBox="0 0 331.93 61.22"><defs><style>.cls-1{fill:#00ade5}.cls-2{fill:#fff}.cls-3{fill:#6d6e70}</style></defs><path class="cls-1" d="M0 32.18h31.16v29.04H0zM31.71 0h32.18v32.18H31.71z"/><path class="cls-1" d="M6.04 5.6h51.68v50.92H6.04z"/><path class="cls-2" d="M15.62 19.37v30.78h10.04V9.6l-10.04 9.77zM48.73 19.37v30.78H38.69V9.6l10.04 9.77zM37.2 27.37v22.78H27.15V17.6l10.05 9.77z"/><path class="cls-3" d="M74.68 15.28v21.2h4.18V23.34l8.47 13.14 8.27-13.02v13.02h4.56v-21.2H95.6l-8.18 12.96-8.56-12.96h-4.18zM123.23 19.55v-4.27h-21.12v21.2h21.12v-4.3H106.3v-4.44h12.46v-4.16H106.3v-4.03h16.93zM146.57 15.28h-21.39v4.27h8.56v16.93h4.18V19.55h8.65v-4.27zM244.88 32.39V15.28h-4.56v21.2h17.11v-4.09h-12.55zM259.39 15.28h4.37v21.21h-4.37zM286.73 15.28h-21.02v4.27h8.46v16.93h4.19V19.55h8.37v-4.27zM327.65 15.28v14.34l-12.37-14.34h-4.65v21.2h4.65V22.2l12.37 14.28h4.28v-21.2h-4.28zM187.2 15.28h-11.61a4.68 4.68 0 00-4.67 4.72v11.82a4.68 4.68 0 004.67 4.67h11.61a4.68 4.68 0 004.67-4.67V20a4.69 4.69 0 00-4.67-4.72zm.51 15.89a1.59 1.59 0 01-1.59 1.59h-9.83a1.59 1.59 0 01-1.59-1.59V20.72a1.59 1.59 0 011.59-1.59h9.83a1.59 1.59 0 011.59 1.59zM233.52 15.28h-11.61a4.68 4.68 0 00-4.67 4.72v11.82a4.68 4.68 0 004.67 4.67h11.61a4.68 4.68 0 004.67-4.67V20a4.68 4.68 0 00-4.67-4.72zm.48 15.89a1.59 1.59 0 01-1.59 1.59h-9.83a1.59 1.59 0 01-1.58-1.59V20.72a1.59 1.59 0 011.59-1.59h9.82a1.59 1.59 0 011.59 1.59zM169.64 25.66v-6.11c0-2.54-2.57-4.28-5.36-4.28h-15.75v21.21h4.56v-6.63H157l6.75 6.63h5.92L163 29.85h1.87a4.67 4.67 0 004.77-4.19zm-16.56.22v-6.32h10.7c1.55 0 2.05.68 2.05 3s-.37 3.32-2.17 3.32zM210.43 15.28h-16.61v21.21h4.37v-6.63h12.24a4.68 4.68 0 004.67-4.67V20a4.68 4.68 0 00-4.67-4.72zm.29 9.3a1.37 1.37 0 01-1.37 1.42h-11.17v-6.44h11.19a1.37 1.37 0 011.37 1.37zM304 15.28h-11.68a4.68 4.68 0 00-4.67 4.72v16.49h4.19v-4.3h12.37v4.3h4.46V20a4.67 4.67 0 00-4.67-4.72zm-12.16 12.65v-7.14a1.23 1.23 0 011.23-1.23H303a1.23 1.23 0 011.23 1.23v7.14z"/><path class="cls-1" d="M130.43 44.25a2.16 2.16 0 011.81.69 3.23 3.23 0 01.55 2v1a3.23 3.23 0 01-.55 2 2.16 2.16 0 01-1.81.69h-4.55v2.54c0 .19-.08.29-.24.29h-1.19c-.17 0-.25-.1-.25-.29V44.6c0-.26.11-.4.33-.4h5.9zm-4.55 4.68h4.21a1 1 0 00.79-.29 1.47 1.47 0 00.23-.89v-.5a1.47 1.47 0 00-.23-.89.94.94 0 00-.79-.29H126c-.1 0-.14 0-.14.16zM140.16 44.25a2.16 2.16 0 011.81.69 3.23 3.23 0 01.55 2v.75a3.63 3.63 0 01-.38 1.8 1.82 1.82 0 01-1.25.85l1.88 2.8a.23.23 0 010 .2c0 .09-.07.13-.18.13h-1.42a.34.34 0 01-.2 0 .69.69 0 01-.11-.13l-1.74-2.75h-3.55v2.63c0 .19-.08.29-.24.29h-1.19c-.17 0-.25-.1-.25-.29v-8.57c0-.26.11-.4.33-.4zM135.61 49h4.21a1 1 0 00.79-.29 1.47 1.47 0 00.23-.89v-.56a1.47 1.47 0 00-.23-.89 1 1 0 00-.79-.29h-4.07c-.1 0-.14.05-.14.16zM151.5 44.25c.17 0 .25.1.25.29v1.26c0 .19-.08.29-.25.29h-4.8a2.13 2.13 0 00-.71.09.9.9 0 00-.45.29 1.47 1.47 0 00-.24.56 5.1 5.1 0 00-.07.87v.1h6.2c.16 0 .24.1.24.29v1c0 .19-.08.29-.24.29h-6.2v.22a4.26 4.26 0 00.07.87 1.17 1.17 0 00.24.56.9.9 0 00.45.29 2.13 2.13 0 00.71.09h4.8c.17 0 .25.1.25.29v1.26c0 .19-.08.29-.25.29h-4.84a4.55 4.55 0 01-1.42-.19 2.06 2.06 0 01-1-.6 2.45 2.45 0 01-.54-1.08 6.81 6.81 0 01-.17-1.62v-2.2a6.73 6.73 0 01.17-1.61 2.45 2.45 0 01.54-1.08 2.21 2.21 0 011-.61 4.55 4.55 0 011.42-.19h4.84zM155.2 44.25a1.48 1.48 0 01.42 0 .89.89 0 01.31.15 1.13 1.13 0 01.24.3 3.89 3.89 0 01.21.51l2.29 6.35a.16.16 0 00.15.12h.18a.16.16 0 00.15-.12l2.29-6.35a3.89 3.89 0 01.21-.51.89.89 0 01.24-.3.85.85 0 01.3-.15h1.59a.84.84 0 01.77.31 2.07 2.07 0 01.2 1.07v7.59c0 .19-.08.29-.25.29h-1.12c-.16 0-.24-.1-.24-.29v-6.91c0-.09 0-.13-.09-.13h-.1a.13.13 0 00-.14.11l-2.22 5.93a4.06 4.06 0 01-.27.6 1.68 1.68 0 01-.3.4.84.84 0 01-.36.22 1.59 1.59 0 01-.48.07h-.53a1.55 1.55 0 01-.48-.07.84.84 0 01-.36-.22 1.68 1.68 0 01-.3-.4 4.06 4.06 0 01-.27-.6L155 46.29a.13.13 0 00-.14-.11h-.1c-.06 0-.09 0-.09.13v6.91c0 .19-.08.29-.24.29h-1.12c-.17 0-.25-.1-.25-.29v-7.59a2.07 2.07 0 01.2-1.07.86.86 0 01.78-.31zM167.59 44.25c.16 0 .24.1.24.29v8.68c0 .19-.08.29-.24.29h-1.16c-.17 0-.25-.1-.25-.29v-8.68c0-.19.08-.29.25-.29zM170.71 44.25c.16 0 .24.1.24.29v5.28a4.35 4.35 0 00.07.88 1.47 1.47 0 00.24.56.9.9 0 00.45.29 2.13 2.13 0 00.71.09h3a2.13 2.13 0 00.71-.09.9.9 0 00.45-.29 1.26 1.26 0 00.23-.56 5.22 5.22 0 00.07-.88v-5.28c0-.19.08-.29.24-.29h1.2c.16 0 .24.1.24.29V50a7.36 7.36 0 01-.16 1.62 2.55 2.55 0 01-.53 1.08 2.06 2.06 0 01-1 .6 4.86 4.86 0 01-1.42.19h-3.17a4.55 4.55 0 01-1.42-.19 2.06 2.06 0 01-1-.6 2.45 2.45 0 01-.54-1.08 6.81 6.81 0 01-.17-1.62v-5.46c0-.19.08-.29.25-.29zM182.21 44.25a1.48 1.48 0 01.42 0 .89.89 0 01.31.15 1.13 1.13 0 01.24.3 3.89 3.89 0 01.21.51l2.29 6.35a.16.16 0 00.15.12h.17a.16.16 0 00.15-.12l2.29-6.35a3.89 3.89 0 01.21-.51.89.89 0 01.24-.3.85.85 0 01.3-.15h1.59a.84.84 0 01.77.31 2.07 2.07 0 01.2 1.07v7.59c0 .19-.08.29-.25.29h-1.12c-.16 0-.24-.1-.24-.29v-6.91c0-.09 0-.13-.09-.13h-.1a.13.13 0 00-.14.11l-2.22 5.93a4.06 4.06 0 01-.27.6 1.68 1.68 0 01-.3.4.84.84 0 01-.36.22 1.59 1.59 0 01-.48.07h-.53a1.55 1.55 0 01-.48-.07 1 1 0 01-.36-.22 1.68 1.68 0 01-.3-.4 4.06 4.06 0 01-.27-.6L182 46.29a.13.13 0 00-.14-.11h-.1c-.06 0-.09 0-.09.13v6.91c0 .19-.08.29-.24.29h-1.12c-.17 0-.25-.1-.25-.29v-7.59a2.07 2.07 0 01.2-1.07.86.86 0 01.78-.31zM203.07 44.25a2.16 2.16 0 011.81.69 3.23 3.23 0 01.55 2v1a3.23 3.23 0 01-.55 2 2.16 2.16 0 01-1.81.69h-4.55v2.54c0 .19-.08.29-.24.29h-1.19c-.17 0-.25-.1-.25-.29V44.6c0-.26.11-.4.33-.4h5.9zm-4.55 4.68h4.21a1 1 0 00.79-.29 1.47 1.47 0 00.23-.89v-.5a1.47 1.47 0 00-.23-.89.94.94 0 00-.79-.29h-4.07c-.1 0-.14 0-.14.16zM212.76 44.25a2.16 2.16 0 011.81.69 3.23 3.23 0 01.55 2v.75a3.63 3.63 0 01-.38 1.8 1.82 1.82 0 01-1.25.85l1.88 2.8a.23.23 0 010 .2c0 .09-.07.13-.18.13h-1.42a.34.34 0 01-.2 0 .69.69 0 01-.11-.13l-1.74-2.75h-3.55v2.63c0 .19-.08.29-.24.29h-1.19c-.17 0-.25-.1-.25-.29v-8.57c0-.26.11-.4.33-.4zM208.21 49h4.22a1 1 0 00.79-.29 1.47 1.47 0 00.23-.89v-.56a1.47 1.47 0 00-.23-.89 1 1 0 00-.79-.29h-4.07c-.1 0-.14.05-.14.16zM222.66 44.25a4.55 4.55 0 011.42.19 2.21 2.21 0 011 .61 2.55 2.55 0 01.53 1.08 6.73 6.73 0 01.17 1.61V50a6.81 6.81 0 01-.17 1.62 2.55 2.55 0 01-.53 1.08 2.06 2.06 0 01-1 .6 4.86 4.86 0 01-1.42.19h-3.4a4.55 4.55 0 01-1.42-.19 2 2 0 01-1-.6 2.45 2.45 0 01-.54-1.08 6.81 6.81 0 01-.17-1.62v-2.26a6.73 6.73 0 01.17-1.61 2.45 2.45 0 01.54-1.08 2.14 2.14 0 011-.61 4.55 4.55 0 011.42-.19zm-4.79 5.62a4.26 4.26 0 00.07.87 1.47 1.47 0 00.24.56.9.9 0 00.45.29 2.13 2.13 0 00.71.09h3.26a2.13 2.13 0 00.71-.09.9.9 0 00.45-.29 1.47 1.47 0 00.24-.56 4.26 4.26 0 00.07-.87v-2A4.26 4.26 0 00224 47a1.47 1.47 0 00-.24-.56.9.9 0 00-.45-.29 2.13 2.13 0 00-.71-.09h-3.26a2.13 2.13 0 00-.71.09.9.9 0 00-.45.29 1.47 1.47 0 00-.24.56 4.26 4.26 0 00-.07.87zM233.34 44.25a2.16 2.16 0 011.81.69 3.23 3.23 0 01.55 2v1a3.23 3.23 0 01-.55 2 2.16 2.16 0 01-1.81.69h-4.55v2.54c0 .19-.08.29-.24.29h-1.19c-.17 0-.25-.1-.25-.29V44.6c0-.26.11-.4.33-.4h5.9zm-4.56 4.68H233a1 1 0 00.79-.29 1.47 1.47 0 00.23-.89v-.5a1.47 1.47 0 00-.23-.89 1 1 0 00-.79-.29h-4.07c-.1 0-.14 0-.14.16zM244.62 44.25c.17 0 .25.1.25.29v1.26c0 .19-.08.29-.25.29h-4.8a2.13 2.13 0 00-.71.09.9.9 0 00-.45.29 1.47 1.47 0 00-.24.56 5.1 5.1 0 00-.07.87v.1h6.21c.16 0 .24.1.24.29v1c0 .19-.08.29-.24.29h-6.21v.22a4.26 4.26 0 00.07.87 1.17 1.17 0 00.24.56.9.9 0 00.45.29 2.13 2.13 0 00.71.09h4.8c.17 0 .25.1.25.29v1.26c0 .19-.08.29-.25.29h-4.84a4.55 4.55 0 01-1.42-.19 2.06 2.06 0 01-1-.6 2.45 2.45 0 01-.54-1.08 6.81 6.81 0 01-.17-1.62v-2.2a6.73 6.73 0 01.17-1.61 2.57 2.57 0 01.61-1 2.21 2.21 0 011-.61 4.55 4.55 0 011.42-.19h4.84zM252.37 44.25a2.16 2.16 0 011.81.69 3.23 3.23 0 01.55 2v.75a3.54 3.54 0 01-.39 1.8 1.82 1.82 0 01-1.25.85l1.88 2.8a.23.23 0 010 .2c0 .09-.07.13-.18.13h-1.36a.34.34 0 01-.2 0 .69.69 0 01-.11-.13l-1.74-2.75h-3.55v2.63c0 .19-.08.29-.24.29h-1.19c-.17 0-.25-.1-.25-.29v-8.57c0-.26.11-.4.33-.4zM247.81 49H252a1 1 0 00.79-.29 1.47 1.47 0 00.23-.89v-.56a1.47 1.47 0 00-.23-.89 1 1 0 00-.79-.29h-4c-.1 0-.14.05-.14.16zM264.31 44.25c.17 0 .25.1.25.29v1.3c0 .2-.08.3-.25.3h-3.45v7.08c0 .19-.08.29-.24.29h-1.19c-.16 0-.24-.1-.24-.29v-7.1h-3.46c-.17 0-.25-.1-.25-.3v-1.3c0-.19.08-.29.25-.29zM267 44.25c.16 0 .24.1.24.29v8.68c0 .19-.08.29-.24.29h-1.2c-.17 0-.25-.1-.25-.29v-8.68c0-.19.08-.29.25-.29zM276.52 44.25c.17 0 .25.1.25.29v1.26c0 .19-.08.29-.25.29h-4.8a2.13 2.13 0 00-.71.09.9.9 0 00-.45.29 1.47 1.47 0 00-.24.56 5.1 5.1 0 00-.07.87v.1h6.18c.16 0 .24.1.24.29v1c0 .19-.08.29-.24.29h-6.21v.22a4.26 4.26 0 00.07.87 1.17 1.17 0 00.24.56.9.9 0 00.45.29 2.13 2.13 0 00.71.09h4.8c.17 0 .25.1.25.29v1.26c0 .19-.08.29-.25.29h-4.84a4.55 4.55 0 01-1.42-.19 2.06 2.06 0 01-1-.6 2.45 2.45 0 01-.54-1.08 6.81 6.81 0 01-.17-1.62v-2.2a6.73 6.73 0 01.17-1.61 2.45 2.45 0 01.54-1.08 2.21 2.21 0 011-.61 4.55 4.55 0 011.42-.19h4.84zM285.67 44.25c.16 0 .24.1.24.29v1.26c0 .19-.08.29-.24.29h-5.51a.53.53 0 00-.45.2.92.92 0 00-.13.54v.45c0 .49.19.74.57.74h4.12a1.74 1.74 0 011.44.59 2.61 2.61 0 01.48 1.69v1.06a2.48 2.48 0 01-.47 1.56 1.78 1.78 0 01-1.47.6h-6.09c-.17 0-.25-.1-.25-.29V52c0-.19.08-.29.25-.29h5.77a.53.53 0 00.45-.2.92.92 0 00.13-.54v-.57c0-.49-.19-.74-.57-.74h-4.12a1.77 1.77 0 01-1.39-.54 2.61 2.61 0 01-.48-1.69v-1a2.48 2.48 0 01.47-1.56 1.78 1.78 0 011.47-.6z"/></svg>